<svg xmlns="http://www.w3.org/2000/svg" width="120" height="34" viewBox="0 0 120 34" fill="none"><path d="M22.9943 7.99321C22.3617 8.15135 21.9189 8.24624 21.4445 8.05647C21.0966 7.92995 20.8119 7.51877 20.5589 7.17085L16.289 1.31948C16.0359 0.971564 15.7513 0.560387 15.4033 0.433871C14.9605 0.244096 14.4861 0.370613 13.8535 0.497129L0 4.19772V29.9754L13.8851 26.2748C14.5177 26.1483 14.9922 26.0218 15.435 26.2115C15.7829 26.3697 16.0675 26.7492 16.3206 27.0971L20.5905 32.9801C20.8435 33.3281 21.1282 33.7076 21.4761 33.8658C21.9189 34.0239 22.3934 33.929 23.0259 33.8025L36.8795 30.1019V4.29261L22.9943 7.99321Z" fill="#9E9E9E"></path><path d="M47.9813 15.2679V7.42394L52.4727 15.2679H54.7816V4.29266L52.6308 5.33642V11.9153H52.5992L48.2344 4.29266L45.8306 5.46294V15.2679H47.9813Z" fill="#9E9E9E"></path><path d="M62.4037 4.29266L59.2091 5.84249L55.8564 15.2679H58.2602L59.0193 12.9906H63.0995L63.7953 15.2679H66.294L62.4037 4.29266ZM59.6519 11.0929L61.0436 6.75973H61.0752L62.4353 11.0929H59.6519Z" fill="#9E9E9E"></path><path d="M107.254 4.29266L104.059 5.84249L100.707 15.2679H103.11L103.869 12.9906H107.918L108.614 15.2679H111.112L107.254 4.29266ZM104.502 11.0929L105.894 6.75973H105.925L107.285 11.0929H104.502Z" fill="#9E9E9E"></path><path d="M68.2546 6.22203V15.2679H70.5319V6.22203H72.746L73.853 4.29266H66.0406L64.9336 6.22203H68.2546Z" fill="#9E9E9E"></path><path d="M77.0483 4.29266L74.771 5.39968V15.2679H77.0483V4.29266Z" fill="#9E9E9E"></path><path d="M83.8485 3.97632C83.7536 3.97632 83.6271 3.97632 83.5005 3.97632L79.7051 5.84243C79.0408 6.69641 78.5664 7.96157 78.5664 9.76443C78.5664 14.92 82.3935 15.5525 83.8485 15.5525C85.3034 15.5525 89.1305 14.92 89.1305 9.76443C89.1305 4.6089 85.3034 3.97632 83.8485 3.97632V3.97632ZM83.8485 13.5915C82.6149 13.5915 80.8753 12.8324 80.8753 9.76443C80.8753 6.69641 82.6149 5.93732 83.8485 5.93732C85.082 5.93732 86.8216 6.69641 86.8216 9.76443C86.8216 12.8324 85.082 13.5915 83.8485 13.5915Z" fill="#9E9E9E"></path><path d="M92.7991 7.42394L97.2588 15.2679H99.5677V4.29266L97.4169 5.33642V11.9153H97.3853L93.0521 4.29266L90.6167 5.46294V15.2679H92.7675V7.42394H92.7991Z" fill="#9E9E9E"></path><path d="M114.559 4.29266L112.25 5.39968V15.2679H118.861L120 13.2753H114.559V4.29266Z" fill="#9E9E9E"></path><path d="M53.2001 24.1557C53.6429 23.9343 54.5602 23.4915 54.5602 21.91C54.5602 20.7714 53.8643 19.095 51.1759 19.095H48.1395L45.8306 20.2337V30.0703H50.48C52.7257 30.0703 53.3267 29.6908 53.9592 29.0898C54.5286 28.5205 54.9081 27.6981 54.9081 26.8125C54.8765 25.7371 54.5286 24.6617 53.2001 24.1557ZM48.013 20.9928H50.6382C51.6819 20.9928 52.3145 21.2774 52.3145 22.163C52.3145 23.0487 51.5871 23.3966 50.7014 23.3966H48.013V20.9928ZM50.828 28.1726H48.013V25.2311H50.9228C51.7452 25.2311 52.5676 25.6106 52.5676 26.5595C52.5992 27.6981 51.9666 28.1726 50.828 28.1726V28.1726Z" fill="#9E9E9E"></path><path d="M68.7288 22.2579L73.1885 30.0703H75.4974V19.095L73.3466 20.1388V26.7493H73.315L68.9818 19.095L66.5464 20.2653V30.0703H68.6972V22.2579H68.7288Z" fill="#9E9E9E"></path><path d="M61.7401 19.095L58.5456 20.6449L55.1929 30.0703H57.5967L58.3558 27.793H62.4043L63.1001 30.0703H65.5988L61.7401 19.095ZM58.9567 25.9269L60.3484 21.5937H60.38L61.7401 25.9269H58.9567Z" fill="#9E9E9E"></path><path d="M80.7804 25.2627L84.1647 30.0703H87.1062L82.3935 23.5864L86.8532 19.095L83.3107 19.7276L79.705 23.5547V19.095L77.4277 20.2337V30.0703H79.705V26.3697L80.7804 25.2627Z" fill="#9E9E9E"></path></svg>