<svg xmlns="http://www.w3.org/2000/svg" width="134" height="24" viewBox="0 0 134 24" fill="none"><path d="M134 17.0972V8.19855H125.256L134 17.0972Z" fill="#9E9E9E"></path><path d="M3.42792 7.28854V9.3213C4.47135 7.37956 6.20046 6.74243 7.84013 6.74243C9.98661 6.74243 11.5368 7.77398 12.4312 9.473C13.3256 7.80432 15.0547 6.74243 17.38 6.74243C20.7786 6.74243 22.8655 8.89654 22.8655 12.9317V23.0652H19.4371V13.5385C19.4371 11.1113 18.3937 9.92809 16.4559 9.92809C14.2796 9.92809 13.1467 11.5058 13.1467 14.2363V23.0652H9.7183V13.5688C9.7183 11.1113 8.64506 9.92809 6.7967 9.92809C4.5906 9.92809 3.48754 11.7181 3.42792 14.4487V23.0652H-0.000488281V7.28854H3.42792Z" fill="#9E9E9E"></path><path d="M30.0203 14.115C34.4921 13.3261 35.1778 13.2048 35.1778 11.7485C35.1778 10.2011 33.7766 9.50334 31.9581 9.50334C29.752 9.50334 28.2018 10.7776 28.2018 13.0227L25.1609 11.8091C25.6081 8.83587 28.3508 6.74243 31.9581 6.74243C35.9828 6.74243 38.5168 8.68417 38.5168 12.2036V19.9402L39.0534 23.0651H36.0126L35.3567 21.1234C34.2238 22.7011 32.286 23.4929 30.1396 23.4929C27.0391 23.4929 24.8628 21.7636 24.8628 18.942C24.8628 16.2387 26.89 14.6914 30.0203 14.115ZM30.9147 20.8504C33.717 20.8504 35.1778 19.0603 35.1778 16.7242V15.3589C34.7008 15.7836 33.8065 15.905 30.9743 16.4511C29.5135 16.7545 28.4701 17.3613 28.4701 18.7569C28.4701 19.9402 29.3644 20.8504 30.9147 20.8504Z" fill="#9E9E9E"></path><path d="M46.2683 1.34198V7.28855H50.6805V10.2922H46.2683V17.9681C46.2683 19.9098 47.0136 20.3042 48.5639 20.3042C49.1958 20.2813 49.8245 20.2001 50.442 20.0615V23.1289C49.9352 23.3412 48.5639 23.4596 48.0571 23.4596C44.6883 23.4596 42.8399 22.0336 42.8399 18.4232V10.2922H40.0674V7.28855H42.8399V3.95119L46.2683 1.34198Z" fill="#9E9E9E"></path><path d="M56.6726 1.34198V7.28855H61.0848V10.2922H56.6726V17.9681C56.6726 19.9098 57.4179 20.3042 58.9682 20.3042C59.6002 20.2813 60.2288 20.2001 60.8463 20.0615V23.1289C60.3395 23.3412 58.9682 23.4596 58.4614 23.4596C55.0926 23.4596 53.2442 22.0336 53.2442 18.4232V10.2922H50.4717V7.28855H53.2442V3.95119L56.6726 1.34198Z" fill="#9E9E9E"></path><path d="M77.2726 14.8734C77.2697 15.34 77.2398 15.806 77.1832 16.2691H65.6756C66.0334 19.2727 67.7923 20.5773 70.1475 20.5773C72.3238 20.5773 73.7249 19.6974 74.5597 17.7557L77.0341 20.0008C75.5733 22.3977 72.92 23.5202 70.058 23.5202C65.1688 23.5202 62.0684 20.0919 62.0684 15.2072C62.0684 10.3225 65.3477 6.74243 69.8494 6.74243C74.4106 6.74243 77.2726 10.0494 77.2726 14.8734ZM73.5759 13.7205C73.5759 11.2934 72.1747 9.68537 69.7897 9.68537C67.7625 9.68537 66.1228 10.99 65.7054 13.7205H73.5759Z" fill="#9E9E9E"></path><path d="M82.8474 7.28862V9.77647C83.9802 7.501 85.8286 6.92454 87.2596 6.92454C87.7261 6.9011 88.1924 6.97332 88.6309 7.13692V10.5956C88.0622 10.4117 87.4687 10.3195 86.872 10.3226C84.487 10.3226 82.8474 11.9609 82.8474 15.45V23.0652H79.4189V7.28862H82.8474Z" fill="#9E9E9E"></path><path d="M104.163 14.8734C104.16 15.34 104.13 15.806 104.074 16.2691H92.5663C92.924 19.2727 94.6829 20.5773 97.0381 20.5773C99.2144 20.5773 100.616 19.6974 101.45 17.7557L103.925 20.0008C102.464 22.3977 99.8107 23.5202 96.9487 23.5202C92.0595 23.5202 88.959 20.0919 88.959 15.2072C88.959 10.3225 92.2383 6.74243 96.74 6.74243C101.301 6.74243 104.163 10.0494 104.163 14.8734ZM100.467 13.7205C100.467 11.2934 99.0653 9.68537 96.6804 9.68537C94.6531 9.68537 93.0135 10.99 92.5961 13.7205H100.467Z" fill="#9E9E9E"></path><path d="M122.349 23.0651H118.95V21.0627C117.728 22.5494 115.939 23.5202 113.524 23.5202C108.873 23.5202 105.684 19.9098 105.684 15.1768C105.684 10.4438 108.844 6.74241 113.524 6.74241C115.909 6.74241 117.698 7.71328 118.92 9.19992V0.765503H122.349V23.0651ZM114.15 20.3346C116.953 20.3346 119.039 18.2411 119.039 15.1768C119.039 12.1125 116.953 9.89773 114.15 9.89773C111.229 9.89773 109.231 12.1125 109.231 15.1768C109.231 18.1804 111.229 20.3346 114.15 20.3346Z" fill="#9E9E9E"></path></svg>