<svg xmlns="http://www.w3.org/2000/svg" width="180" height="35" viewBox="0 0 180 35" fill="none"><path d="M57.6156 22.6804C55.0091 22.6804 53.4812 20.5413 53.4812 18.1191C53.4812 15.3194 55.2189 13.4633 57.6156 13.4633C58.8739 13.4633 59.7128 13.9981 60.4918 14.5014L61.75 12.1422C60.8513 11.5445 59.3533 10.8209 57.7654 10.8209C53.631 10.8209 50.665 13.9037 50.665 18.1191C50.665 22.3029 53.6909 25.4173 57.7654 25.4173C59.5031 25.4173 60.7614 24.6623 61.75 24.0331L60.4918 21.6738C59.7128 22.24 58.5444 22.6804 57.6156 22.6804ZM66.4537 4.37207H69.1201V25.0398H66.4537V4.37207ZM84.4894 11.2613L84.1898 12.4568C83.4708 11.6388 81.9429 10.8209 80.325 10.8209C77.0295 10.8209 74.0036 13.5577 74.0036 18.0247C74.0036 22.6489 77.0295 25.4487 80.325 25.4487C81.9429 25.4487 83.4109 24.6308 84.1898 23.8129L84.4894 25.0712H86.7364V11.3557H84.4894V11.2613ZM84.2497 18.2134C84.2497 21.3593 82.4222 22.7748 80.6845 22.7748C78.917 22.7748 76.8797 21.5166 76.8797 18.0561C76.8797 15.8542 77.9882 13.4948 80.4748 13.4948C82.3623 13.4948 84.2497 15.0992 84.2497 18.0561V18.2134ZM96.2636 19.3145C98.0911 19.8178 98.87 20.1953 98.87 21.1705C98.87 21.9255 98.2409 22.7119 96.7729 22.7119C95.4247 22.7119 94.3162 22.2086 93.2677 21.6109L92.0693 23.9702C92.998 24.5679 95.0652 25.3858 96.7729 25.3858C99.709 25.3858 101.416 23.3096 101.416 21.202C101.416 17.5843 98.0312 17.0181 97.1324 16.7035C95.2449 16.1687 94.7656 15.7598 94.7656 14.9419C94.7656 14.061 95.4846 13.4633 96.8628 13.4633C98.0611 13.4633 98.9599 13.8408 99.7993 14.2812L101.057 11.922C99.8588 11.3872 98.4506 10.8209 96.8628 10.8209C93.9866 10.8209 92.249 12.96 92.249 14.9419C92.249 18.1191 94.7955 18.937 96.2636 19.3145ZM110.554 19.3145C112.382 19.8178 113.16 20.1953 113.16 21.1705C113.16 21.9255 112.531 22.7119 111.063 22.7119C109.715 22.7119 108.607 22.2086 107.558 21.6109L106.36 23.9702C107.288 24.5679 109.356 25.3858 111.063 25.3858C114 25.3858 115.707 23.3096 115.707 21.202C115.707 17.5843 112.322 17.0181 111.423 16.7035C109.535 16.1687 109.056 15.7598 109.056 14.9419C109.056 14.061 109.776 13.4633 111.153 13.4633C112.352 13.4633 113.251 13.8408 114.09 14.2812L115.348 11.922C114.15 11.3872 112.742 10.8209 111.153 10.8209C108.277 10.8209 106.539 12.96 106.539 14.9419C106.51 18.1191 109.086 18.937 110.554 19.3145ZM127.272 10.8209C125.654 10.8209 124.186 11.6388 123.407 12.4568L123.108 11.1984H120.861V30.7336H123.377V23.9387L123.467 23.8758C124.186 24.6937 125.654 25.3544 127.062 25.3544C130.447 25.3544 133.593 23.0579 133.593 17.9303C133.653 13.3375 130.628 10.8209 127.272 10.8209ZM126.972 22.7748C125.235 22.7748 123.407 21.3593 123.407 18.2134V18.0561C123.407 15.0362 125.294 13.4948 127.182 13.4948C129.698 13.4948 130.777 15.8542 130.777 18.0561C130.777 21.5166 128.74 22.7748 126.972 22.7748ZM148.514 11.2613L148.214 12.5197C147.495 11.7018 145.967 10.8838 144.349 10.8838C141.053 10.8838 138.027 13.6206 138.027 18.0876C138.027 22.7119 141.053 25.5117 144.349 25.5117C145.967 25.5117 147.434 24.6937 148.214 23.8758L148.514 25.1342H150.761V11.4186H148.514V11.2613ZM148.244 18.2134C148.244 21.3593 146.416 22.7748 144.678 22.7748C142.91 22.7748 140.874 21.5166 140.874 18.0561C140.874 15.8542 141.982 13.4948 144.469 13.4948C146.356 13.4948 148.244 15.0992 148.244 18.0561V18.2134ZM160.287 19.3145C162.115 19.8178 162.894 20.1953 162.894 21.1705C162.894 21.9255 162.265 22.7119 160.796 22.7119C159.448 22.7119 158.34 22.2086 157.291 21.6109L156.093 23.9702C157.022 24.5679 159.089 25.3858 160.796 25.3858C163.733 25.3858 165.44 23.3096 165.44 21.202C165.44 17.5843 162.055 17.0181 161.156 16.7035C159.269 16.1687 158.789 15.7598 158.789 14.9419C158.789 14.061 159.509 13.4633 160.887 13.4633C162.085 13.4633 162.984 13.8408 163.823 14.2812L165.081 11.922C163.883 11.3872 162.475 10.8209 160.887 10.8209C158.011 10.8209 156.273 12.96 156.273 14.9419C156.243 18.1191 158.819 18.937 160.287 19.3145ZM174.548 19.3145C176.376 19.8178 177.154 20.1953 177.154 21.1705C177.154 21.9255 176.526 22.7119 175.057 22.7119C173.709 22.7119 172.601 22.2086 171.552 21.6109L170.354 23.9702C171.282 24.5679 173.35 25.3858 175.057 25.3858C177.994 25.3858 179.701 23.3096 179.701 21.202C179.701 17.5843 176.316 17.0181 175.417 16.7035C173.529 16.1687 173.05 15.7598 173.05 14.9419C173.05 14.061 173.77 13.4633 175.148 13.4633C176.346 13.4633 177.245 13.8408 178.083 14.2812L179.342 11.922C178.144 11.3872 176.735 10.8209 175.148 10.8209C172.272 10.8209 170.533 12.96 170.533 14.9419C170.533 18.1191 173.11 18.937 174.548 19.3145Z" fill="#9E9E9E"></path><path d="M27.8025 0H22.979C22.1402 0 21.3013 0.660521 21.2114 1.54135L20.4924 5.15906C20.4025 5.81958 19.8632 6.26 19.2341 6.26H13.9013C6.68101 6.35437 0 12.0797 0 20.1957C0 27.431 5.75226 34.0372 14.0212 34.0372H19.4737C20.3126 34.0372 21.1515 33.3766 21.2414 32.4957L21.9605 28.8781C22.0503 28.2175 22.5896 27.7771 23.2187 27.7771H27.9224C35.9816 27.7771 41.9435 21.2968 41.9435 13.9357C41.8236 5.81958 35.2326 0 27.8025 0ZM27.6827 22.3978H22.0204C21.1815 22.3978 20.4624 23.0584 20.2527 23.9393L19.5337 27.4625C19.4438 28.1231 18.9045 28.5635 18.2754 28.5635H14.081C9.7968 28.5635 5.18302 25.3863 5.18302 20.1014C5.18302 15.2569 9.25753 11.6393 14.081 11.6393H20.5523C21.3912 11.6393 22.1103 10.9786 22.32 10.0979L23.0389 6.57458C23.1288 5.91396 23.6681 5.47354 24.2973 5.47354H27.6527C32.1467 5.47354 36.5507 8.77667 36.5507 13.9357C36.4908 18.6544 32.626 22.3978 27.6827 22.3978Z" fill="#9E9E9E"></path></svg>