<svg xmlns="http://www.w3.org/2000/svg" width="95" height="32" viewBox="0 0 95 32" fill="none"><path d="M36.7982 27.6029C33.3005 25.3498 28.5536 24.9544 20.8981 27.0783C12.7369 28.9961 10.0159 30.2255 6.44233 27.7576C5.06946 26.5452 4.57725 24.5932 4.94479 21.7814C5.79726 17.1977 8.10096 12.7867 12.1929 7.89373C14.477 5.34844 16.5956 3.16412 19.3933 2.28698C21.5374 1.73673 21.337 3.4218 21.0775 3.66279C20.8038 3.66279 20.3439 3.70591 19.9884 3.93786C19.7 4.16158 18.9081 4.88397 18.8656 5.85569C18.8043 7.34324 20.3438 7.03363 21.0077 6.21689C21.7234 5.29651 22.7812 3.53401 21.9492 1.89136C21.6004 1.30668 20.9979 0.902596 20.2498 0.765004C17.688 0.618599 15.3022 1.83978 13.1003 3.18985C8.28497 6.53496 4.43296 11.1701 2.25334 16.2437C0.996675 19.305 -0.139785 23.6901 1.56373 27.2591C2.88149 29.7356 5.61736 31.051 8.8814 30.7759C11.1706 30.5354 13.9388 29.7955 15.8006 29.3488C17.6624 28.9013 27.1927 25.6253 30.3241 31.327C30.3241 31.327 31.3654 29.3056 33.9676 29.2625C36.1071 29.0651 39.1935 29.8819 41.4411 31.5326C40.6923 30.4065 38.5693 28.7468 36.7982 27.6029Z" fill="#9E9E9E"></path><path d="M21.8695 8.46981C20.087 7.30033 16.5044 9.53612 13.635 13.3712C11.011 16.8113 9.87792 20.8094 11.111 22.6583C12.9453 24.8338 16.3504 21.6694 17.7985 19.9756L17.9853 19.7777C18.9701 18.7199 19.7309 17.4472 20.4672 16.226C20.4672 16.226 21.144 15.1081 21.1764 15.0564C21.5947 14.9793 22.0985 14.8589 22.6663 14.6954C22.6582 14.721 20.494 18.3586 20.7148 20.1641C20.7836 20.715 20.731 22.7271 22.6956 23.3376C25.314 23.7764 27.4048 21.7467 29.2493 19.9409C29.2493 19.9409 29.5636 19.6402 29.7414 19.4685C29.6964 19.6486 29.6378 19.8889 29.6378 19.8889C28.8712 22.5548 29.9045 23.1141 30.5509 23.3205C32.5043 23.8884 34.838 21.0504 34.8455 21.0504C34.785 21.9444 34.608 22.6839 35.5504 23.2773C36.4398 23.5957 37.34 23.1103 38.0242 22.6545C40.4888 20.9175 42.4743 18.1989 44.0781 15.8489H43.0551C43.043 15.8489 40.5308 19.49 38.8996 20.2814C38.897 20.2814 38.6002 20.4338 38.4291 20.3132C38.2174 20.1325 38.3009 19.757 38.4317 19.491C38.4399 19.4736 44.7301 8.56393 44.7301 8.56393H41.7601C41.7601 8.56393 41.4357 9.0888 41.4093 9.12323C41.3893 9.10607 41.3417 9.01583 41.3087 8.97259C39.4686 6.42731 35.3017 10.3424 32.1646 14.8826C30.9568 16.6284 29.4191 18.5941 27.8246 20.0129C27.8246 20.0129 25.4625 22.1782 24.4532 20.6225C24.0843 19.9688 24.1978 19.0132 24.4058 18.3856C25.581 15.0405 27.6058 12.0047 29.91 10.1729C30.5605 9.66584 31.2675 9.5192 31.6184 9.73423C31.9526 9.93233 32.0066 10.4221 31.7951 10.7575C31.2584 10.7404 30.8285 10.9035 30.479 11.2647C29.7904 11.9871 29.5512 12.6837 29.7701 13.3374C30.8336 14.8508 32.9546 11.8582 32.852 10.0351C32.8153 9.38149 32.4666 8.7625 31.9462 8.46123C31.1706 7.99711 29.9873 8.11731 29.2216 8.48732C28.1965 8.87413 26.5738 10.2241 25.6267 11.2734C24.4343 12.5892 22.3893 14.0509 21.7498 13.8873C21.9593 13.3281 23.6866 9.79392 21.8695 8.46981ZM36.1882 13.6981C36.7659 12.8985 38.4475 10.7572 38.8574 10.3961C40.2362 9.18315 40.7872 9.71684 40.8349 10.095C39.5482 12.3995 38.0295 15.0396 36.6016 17.4131C36.6046 17.4046 36.1548 18.0924 36.1548 18.0924C35.5242 19.0553 34.8892 19.8808 33.8534 20.4569C33.7057 20.5002 33.4623 20.5174 33.3002 20.3966C33.1052 20.2676 33.0282 20.0526 33.0502 19.8289C33.1122 19.0896 33.8651 16.8284 36.1882 13.6981ZM20.0313 15.0825C20.0313 15.0825 20.0055 15.1601 19.9927 15.1855C19.9894 15.1855 18.6978 17.2921 18.6978 17.2921C17.9183 18.3328 16.9451 19.6402 15.7285 20.2676C15.3679 20.3881 14.8694 20.4656 14.6154 20.1477C14.0769 19.5026 14.3544 18.6083 14.5799 17.886L14.6597 17.628C15.3062 15.874 16.332 14.3258 17.3304 12.8897C17.3428 12.8812 17.3708 12.8727 17.3809 12.8727C17.3832 12.8812 17.3872 12.8812 17.389 12.8985C18.0155 14.1022 19.1903 14.6609 20.0688 14.9193C20.0741 14.9193 20.0797 14.9278 20.0797 14.9451C20.0799 14.9707 20.0655 15.0054 20.0313 15.0825ZM21.255 12.5976C21.2493 12.6147 20.6797 13.9217 20.6797 13.9217C20.5973 13.9904 20.4671 13.9561 20.3179 13.9217L20.0622 13.8785C19.2594 13.6292 18.6538 13.096 18.467 12.4598C18.2095 11.2214 19.2673 10.2497 19.7335 9.89732C20.1807 9.58747 20.8759 9.42415 21.2796 9.74245C21.5286 10.0349 21.623 10.4131 21.623 10.8262C21.6231 11.385 21.4506 12.0127 21.255 12.5976Z" fill="#9E9E9E"></path><path d="M58.8011 16.5873C58.5147 15.9683 57.8349 15.5727 57.1104 15.6156C54.7577 15.8307 52.4564 17.7655 51.2482 20.5428C50.6141 21.9704 50.2681 23.1484 50.0412 25.023C50.7728 24.1805 52.265 22.7961 53.9584 22.0393C53.9584 22.0393 54.1889 20.2421 55.3639 18.6426C55.8085 17.9803 56.6983 16.9141 57.6974 17.1977C58.5703 17.4903 58.2635 19.9067 57.1033 22.2451C56.2449 23.9652 54.9312 25.6855 53.6021 26.8719C52.4269 27.8695 50.6883 29.0733 49.1671 28.1447C48.209 27.5774 47.7204 26.3904 47.8236 24.8598C48.2814 20.5173 50.2581 16.8196 53.0869 12.606C56.0038 8.6934 59.219 4.67761 63.5504 2.53605C64.4339 2.08896 65.2521 1.9858 65.9593 2.26098C65.9593 2.26098 61.8933 4.49677 59.9552 8.63313C59.4621 9.6824 58.7764 11.1009 59.467 12.3565C59.8278 13.0099 60.4685 13.0616 60.9844 13.0272C63.3601 12.4767 64.895 10.2582 66.1491 8.22893C66.8761 6.68968 67.5224 5.159 67.5224 3.45631C67.5224 3.24998 67.5117 2.97491 67.4942 2.76835C68.6292 2.16663 70.9567 3.23271 70.9567 3.23271C72.7755 3.8349 76.6482 6.80177 77.9545 7.36906C78.5917 6.62963 79.6389 5.51186 80.2285 4.95279L79.375 4.42815C78.0085 3.59402 76.564 2.80278 75.1423 2.02034C71.9135 0.257726 69.2854 0.876716 67.9478 1.35835C67.4221 1.54741 66.9416 1.71085 66.9416 1.71085C65.949 0.627381 64.321 0.730311 63.1214 1.02289C58.8075 2.2611 54.8023 5.27932 50.5083 10.5164C47.3513 14.6183 45.393 18.1613 44.3493 21.6611C43.5448 24.017 43.3002 27.4826 45.2639 29.5379C46.9335 31.283 49.1473 30.905 50.7106 30.2774C54.0978 28.6092 57.1421 25.0145 58.659 20.8783C59.025 19.6487 59.4313 17.9117 58.8011 16.5873ZM66.5897 3.62845C66.1413 8.77084 62.1441 11.7894 61.1551 12.0298C60.5557 12.15 59.533 11.8836 60.446 9.72552C61.7905 6.81869 64.086 4.35096 66.5489 3.08677C66.6088 3.3018 66.6073 3.43904 66.5897 3.62845Z" fill="#9E9E9E"></path><path d="M90.3011 4.28173C88.151 5.50303 85.9221 6.29392 83.224 6.01885C82.4762 6.8618 81.7482 7.73024 81.0771 8.62441C84.8641 9.58756 88.8788 7.44636 91.1178 5.40856C93.4863 3.35325 94.7009 0.765076 94.7009 0.765076C94.7009 0.765076 92.9255 2.7943 90.3011 4.28173Z" fill="#9E9E9E"></path><path d="M48.0748 11.149L49.6663 8.56403H46.8458L45.2549 11.149H48.0748Z" fill="#9E9E9E"></path><path d="M83.2125 27.8423C82.9093 28.0486 82.4832 27.89 82.6425 27.4171C83.0393 26.2132 84.6169 23.7598 84.6169 23.7598L89.0109 15.9665H86.001C85.858 16.2015 85.5521 16.7412 85.5521 16.7412C85.4128 16.5093 84.9964 15.9934 84.825 15.882C84.0897 15.4173 83.0108 15.6371 82.2665 16.0583C79.0307 17.9504 76.6698 21.6887 74.8079 24.604C74.8079 24.604 72.8478 27.8446 71.7598 28.0856C70.9104 28.1545 70.998 27.0102 71.0348 26.7436C71.3632 24.8171 72.1259 22.9856 72.8944 21.3259C74.4572 20.2425 76.2409 18.8237 77.8618 17.2673C81.3795 13.9046 84.3451 10.0952 84.7786 9.24388C84.7786 9.24388 84.3094 9.33859 83.7554 9.35562C81.0491 13.1307 75.5111 18.6172 73.8321 19.434C74.5759 17.645 79.3813 9.10617 83.4707 5.02163L84.1142 4.40229C85.1092 3.43057 86.1403 2.43311 86.9437 2.26967C87.0286 2.26109 87.1378 2.26967 87.2322 2.46777C87.268 3.22435 86.9864 3.78342 86.6633 4.41968L86.2104 5.34852C86.2104 5.34852 86.8518 5.22808 87.2731 5.09014C87.7619 4.17046 88.3032 3.13823 88.1037 1.90882C88.0371 1.5132 87.7507 1.21228 87.3765 1.14343C86.1566 0.911249 84.8271 1.81388 83.7574 2.54509L83.7141 2.5707C78.215 6.87896 73.5714 13.0877 69.5117 21.5666C69.2174 21.7898 68.0806 22.0567 67.8873 21.9275C68.2883 21.1022 68.793 19.9927 69.0457 18.7888C69.0894 18.4447 69.13 18.0923 69.13 17.7484C69.13 17.0083 68.9524 16.312 68.2893 15.8306C67.5119 15.4435 66.5511 15.6242 65.9034 15.9165C63.0013 17.1204 60.8324 20.0959 59.2673 22.5464C58.4255 24.1033 57.5862 25.7707 57.3538 27.6801C57.1901 29.1761 57.5234 30.1393 58.374 30.621C59.2487 31.0679 60.3497 30.6034 60.7822 30.38C63.7222 28.8322 65.7763 25.7281 67.3956 22.8901C67.46 22.8816 68.3441 22.856 69.0128 22.6838C69.0217 22.6838 69.0254 22.6838 69.0403 22.6928C69.0019 22.8212 68.6564 23.8535 68.6564 23.8535C67.6301 26.863 67.1556 28.9099 68.1249 30.1221C69.5101 31.8335 71.8034 30.0622 73.6689 27.7228C73.2685 30.5261 74.7214 30.9648 75.8288 30.75C77.101 30.4062 78.5186 29.0472 79.1765 28.3509C78.9652 29.1677 79.0227 30.6297 80.18 30.7758C80.9732 30.9224 81.5668 30.4909 82.2537 30.1211C84.7176 28.7794 87.6669 24.3089 88.4327 23.0164H87.4287C86.3401 24.6615 84.9549 26.8185 83.2125 27.8423ZM61.0969 27.5429C60.9406 27.3107 60.8888 27.0568 60.8836 26.7823C60.8537 25.0962 62.6678 22.0765 63.9483 20.4315C63.951 20.4315 63.951 20.4315 63.951 20.4315C64.4876 21.6065 65.7028 22.3618 66.4363 22.6801C65.5252 24.7097 62.4006 29.0563 61.0969 27.5429ZM66.9505 21.7728C66.8637 21.8333 65.3314 21.3171 65.0353 19.8983C64.7841 18.6768 65.6252 17.7223 66.439 17.2412C66.7884 16.9659 67.3145 16.8715 67.7005 17.0085C68.0588 17.2496 68.1558 17.6799 68.1558 18.1436C68.1558 18.4279 68.1181 18.72 68.0849 18.9865C68.0849 18.9865 68.0785 19.0383 68.0775 19.0469C67.8221 20.0011 67.4314 20.9385 66.9505 21.7728ZM79.2405 27.0012C79.2393 27.0012 78.9499 27.2591 78.9499 27.2591C78.5365 27.6286 78.1111 28.0243 77.5977 27.8264C77.4558 27.7748 77.3561 27.5859 77.3321 27.4392C77.3087 26.3815 77.7851 25.4014 78.247 24.4471L78.3654 24.1975C79.6941 21.979 81.2385 19.3649 83.5067 17.5507C83.889 17.2749 84.3037 17.0432 84.7415 17.2239C84.8422 17.3182 84.9595 17.4818 84.9595 17.645C84.9595 17.6968 84.9136 17.8343 84.887 17.8771C84.2536 18.9009 83.6502 19.9756 83.0635 21.0074C81.917 23.0456 80.7275 25.1521 79.2405 27.0012Z" fill="#9E9E9E"></path></svg>