<svg xmlns="http://www.w3.org/2000/svg" width="135" height="39" viewBox="0 0 135 39" fill="none"><path fill-rule="evenodd" clip-rule="evenodd" d="M16.5609 2.75006C16.1557 2.66722 15.7377 2.66722 15.3325 2.75006C14.864 2.84583 14.4453 3.07895 14.1125 3.26427L14.0217 3.31466L2.74048 9.54472C2.70929 9.56194 2.67716 9.57954 2.64423 9.59757C2.29187 9.79049 1.84883 10.0331 1.5086 10.4001C1.21444 10.7174 0.991836 11.0934 0.855661 11.5031C0.698155 11.977 0.699998 12.4798 0.701463 12.8797C0.7016 12.917 0.701734 12.9535 0.701734 12.989V25.2898C0.701734 25.3253 0.7016 25.3618 0.701463 25.3991C0.699998 25.799 0.698155 26.3018 0.855662 26.7757C0.991837 27.1854 1.21445 27.5614 1.5086 27.8787C1.84883 28.2457 2.29187 28.4883 2.64423 28.6812C2.67716 28.6993 2.7093 28.7169 2.74049 28.7341L14.0217 34.9641L14.1125 35.0145C14.4453 35.1999 14.864 35.433 15.3325 35.5287C15.7377 35.6116 16.1557 35.6116 16.5609 35.5287C17.0293 35.433 17.448 35.1998 17.7809 35.0145L17.8716 34.9641L29.1529 28.7341C29.1667 28.7265 29.1806 28.7188 29.1948 28.711C29.2126 28.7012 29.2308 28.6913 29.2491 28.6812C29.6015 28.4883 30.0445 28.2457 30.3848 27.8787C30.6789 27.5614 30.9015 27.1854 31.0377 26.7757C31.1952 26.3018 31.1934 25.799 31.1919 25.3991C31.1918 25.3617 31.1916 25.3253 31.1916 25.2898V12.989C31.1916 12.9535 31.1918 12.917 31.1919 12.8797C31.1934 12.4798 31.1952 11.977 31.0377 11.5031C30.9015 11.0934 30.6789 10.7174 30.3848 10.4001C30.0445 10.0331 29.6015 9.79049 29.2491 9.59756L29.2479 9.59688C29.2154 9.57909 29.1837 9.56172 29.1529 9.54472L17.8716 3.31465L17.7809 3.26427C17.448 3.07894 17.0293 2.84583 16.5609 2.75006ZM15.5025 5.96409C15.7335 5.8365 15.8514 5.77204 15.9394 5.72986L15.9467 5.72639L15.954 5.72986C16.0419 5.77204 16.1599 5.8365 16.3909 5.96409L26.5279 11.5623L15.9466 17.4058L5.36537 11.5623L15.5025 5.96409ZM3.75072 14.1378L14.4221 20.031L14.4222 31.7181L4.22121 26.0846C3.97736 25.95 3.85286 25.8805 3.76551 25.8252L3.75814 25.8205L3.75759 25.8118C3.75136 25.709 3.75072 25.5671 3.75072 25.2898V14.1378Z" fill="#9E9E9E"></path><path d="M45.066 24.2039H49.9189V27.0466H41.3613V11.9285H45.066V24.2039Z" fill="#9E9E9E"></path><path d="M53.3324 13.7806C52.6825 13.7806 52.1481 13.594 51.7292 13.2207C51.3248 12.833 51.1226 12.3593 51.1226 11.7993C51.1226 11.225 51.3248 10.7513 51.7292 10.378C52.1481 9.99033 52.6825 9.79651 53.3324 9.79651C53.9679 9.79651 54.4879 9.99033 54.8923 10.378C55.3111 10.7513 55.5205 11.225 55.5205 11.7993C55.5205 12.3593 55.3111 12.833 54.8923 13.2207C54.4879 13.594 53.9679 13.7806 53.3324 13.7806ZM55.1739 15.0297V27.0466H51.4693V15.0297H55.1739Z" fill="#9E9E9E"></path><path d="M62.2349 14.8574C63.087 14.8574 63.8309 15.0297 64.4664 15.3743C65.1163 15.7188 65.6146 16.1711 65.9612 16.731V15.0297H69.6659V27.0251C69.6659 28.1306 69.442 29.1284 68.9943 30.0185C68.561 30.923 67.8894 31.6409 66.9795 32.1721C66.084 32.7033 64.9646 32.9689 63.6214 32.9689C61.8305 32.9689 60.379 32.5454 59.2668 31.6983C58.1547 30.8656 57.5192 29.7314 57.3603 28.2957H61.0217C61.1372 28.7551 61.4116 29.114 61.8449 29.3725C62.2782 29.6453 62.8126 29.7817 63.4481 29.7817C64.2136 29.7817 64.8202 29.5591 65.268 29.1141C65.7301 28.6833 65.9612 27.987 65.9612 27.0251V25.3238C65.6001 25.8837 65.1019 26.3431 64.4664 26.702C63.8309 27.0466 63.087 27.2189 62.2349 27.2189C61.2383 27.2189 60.3356 26.9677 59.5268 26.4652C58.718 25.9483 58.0753 25.2233 57.5987 24.29C57.1365 23.3425 56.9054 22.2513 56.9054 21.0166C56.9054 19.7819 57.1365 18.6979 57.5987 17.7647C58.0753 16.8315 58.718 16.1137 59.5268 15.6112C60.3356 15.1087 61.2383 14.8574 62.2349 14.8574ZM65.9612 21.0382C65.9612 20.1193 65.7012 19.3943 65.1813 18.863C64.6758 18.3318 64.0547 18.0662 63.3181 18.0662C62.5815 18.0662 61.9533 18.3318 61.4333 18.863C60.9278 19.3799 60.675 20.0978 60.675 21.0166C60.675 21.9355 60.9278 22.6677 61.4333 23.2133C61.9533 23.7445 62.5815 24.0101 63.3181 24.0101C64.0547 24.0101 64.6758 23.7445 65.1813 23.2133C65.7012 22.682 65.9612 21.957 65.9612 21.0382Z" fill="#9E9E9E"></path><path d="M79.5604 14.9005C80.9469 14.9005 82.059 15.3599 82.8967 16.2788C83.7344 17.1833 84.1533 18.4323 84.1533 20.026V27.0466H80.4703V20.5213C80.4703 19.7173 80.2609 19.0928 79.842 18.6477C79.4232 18.2026 78.8599 17.9801 78.1522 17.9801C77.4445 17.9801 76.8812 18.2026 76.4623 18.6477C76.0435 19.0928 75.834 19.7173 75.834 20.5213V27.0466H72.1294V11.1102H75.834V16.6449C76.2096 16.1137 76.7223 15.6901 77.3722 15.3743C78.0222 15.0584 78.7516 14.9005 79.5604 14.9005Z" fill="#9E9E9E"></path><path d="M93.2487 23.9239V27.0466H91.3639C90.0207 27.0466 88.9736 26.7236 88.2225 26.0775C87.4715 25.4171 87.096 24.3475 87.096 22.8687V18.0878H85.6228V15.0297H87.096V12.1008H90.8006V15.0297H93.227V18.0878H90.8006V22.9118C90.8006 23.2707 90.8873 23.5291 91.0606 23.687C91.2339 23.845 91.5228 23.9239 91.9272 23.9239H93.2487Z" fill="#9E9E9E"></path><path d="M98.8003 16.731C99.1469 16.1711 99.6452 15.7188 100.295 15.3743C100.945 15.0297 101.689 14.8574 102.527 14.8574C103.523 14.8574 104.426 15.1087 105.235 15.6112C106.044 16.1137 106.679 16.8315 107.141 17.7647C107.618 18.6979 107.856 19.7819 107.856 21.0166C107.856 22.2513 107.618 23.3425 107.141 24.29C106.679 25.2233 106.044 25.9483 105.235 26.4652C104.426 26.9677 103.523 27.2189 102.527 27.2189C101.674 27.2189 100.931 27.0538 100.295 26.7236C99.6597 26.379 99.1614 25.9268 98.8003 25.3668V27.0466H95.0956V11.1102H98.8003V16.731ZM104.086 21.0166C104.086 20.0978 103.826 19.3799 103.307 18.863C102.801 18.3318 102.173 18.0662 101.422 18.0662C100.685 18.0662 100.057 18.3318 99.5369 18.863C99.0314 19.3943 98.7786 20.1193 98.7786 21.0382C98.7786 21.957 99.0314 22.682 99.5369 23.2133C100.057 23.7445 100.685 24.0101 101.422 24.0101C102.158 24.0101 102.787 23.7445 103.307 23.2133C103.826 22.6677 104.086 21.9355 104.086 21.0166Z" fill="#9E9E9E"></path><path d="M115.086 27.2189C113.902 27.2189 112.833 26.9677 111.879 26.4652C110.941 25.9627 110.197 25.2448 109.648 24.3116C109.114 23.3784 108.846 22.2872 108.846 21.0382C108.846 19.8034 109.121 18.7195 109.67 17.7863C110.219 16.8387 110.97 16.1137 111.923 15.6112C112.876 15.1087 113.945 14.8574 115.129 14.8574C116.314 14.8574 117.382 15.1087 118.336 15.6112C119.289 16.1137 120.04 16.8387 120.589 17.7863C121.138 18.7195 121.412 19.8034 121.412 21.0382C121.412 22.2729 121.13 23.364 120.567 24.3116C120.018 25.2448 119.26 25.9627 118.292 26.4652C117.339 26.9677 116.27 27.2189 115.086 27.2189ZM115.086 24.0316C115.794 24.0316 116.393 23.7732 116.884 23.2563C117.39 22.7395 117.642 22.0001 117.642 21.0382C117.642 20.0762 117.397 19.3368 116.906 18.82C116.429 18.3031 115.837 18.0447 115.129 18.0447C114.407 18.0447 113.808 18.3031 113.331 18.82C112.854 19.3225 112.616 20.0619 112.616 21.0382C112.616 22.0001 112.847 22.7395 113.309 23.2563C113.786 23.7732 114.378 24.0316 115.086 24.0316Z" fill="#9E9E9E"></path><path d="M130.31 27.0466L127.992 23.7086L126.042 27.0466H122.034L126.02 20.9089L121.926 15.0297H126.085L128.404 18.3462L130.353 15.0297H134.361L130.31 21.0812L134.47 27.0466H130.31Z" fill="#9E9E9E"></path></svg>