<svg xmlns="http://www.w3.org/2000/svg" width="119" height="24" viewBox="0 0 119 24" fill="none"><path d="M19.9745 16.1254C19.9745 19.0262 18.3028 20.7962 15.6478 21.337C14.9103 21.4845 13.6812 21.4845 12.8453 21.4845L6.40451 21.4354V23.8937L0.701172 19.2229L6.40451 14.552V17.0104L13.632 17.0595C14.3203 17.0595 14.6153 16.6662 14.6153 16.2729C14.6153 15.5354 13.927 15.2895 11.862 14.3062C8.56784 12.7329 6.01117 11.602 6.01117 8.01288C6.01117 5.21038 8.027 3.29288 10.977 2.89954C11.567 2.80121 12.6978 2.80121 13.3862 2.80121C14.8612 2.80121 18.9912 2.89954 18.9912 2.89954V7.37371L12.2062 7.27538C11.6162 7.27538 11.3212 7.66871 11.3212 8.06204C11.3212 8.65204 11.8128 8.89788 13.7303 9.78288C17.762 11.6512 19.9745 12.6837 19.9745 16.1254ZM30.6437 15.7812C30.6437 16.617 29.9062 17.3054 28.5787 17.3054C27.1528 17.3054 26.5137 16.617 26.5137 15.7812V2.85038H20.9578V16.2237C20.9578 19.1737 23.4162 21.9762 28.5295 21.9762C33.397 21.9762 36.1012 19.2229 36.1012 16.2237V2.85038H30.6437V15.7812ZM53.162 15.8795C53.162 19.567 50.6545 21.5829 47.0162 21.5829H37.822V2.85038H46.672C50.6545 2.85038 52.6703 5.06288 52.6703 7.96371C52.6703 9.43871 51.982 10.717 50.6053 11.6512C52.2278 12.5362 53.162 13.9129 53.162 15.8795ZM43.2795 10.2745H45.8362C46.8195 10.2745 47.262 9.58621 47.262 8.60288C47.262 7.57038 46.8195 6.93121 45.8362 6.93121H43.2795V10.2745ZM47.6062 15.6337C47.6062 14.5029 47.0653 13.8637 46.082 13.8637H43.2795V17.4037H46.082C47.1145 17.4037 47.6062 16.7154 47.6062 15.6337Z" fill="#9E9E9E"></path><path d="M71.5504 2.85036H77.0079V16.027C77.0079 19.0754 74.8446 21.8287 70.2721 21.8287C68.3054 21.8287 66.7813 21.2387 65.6996 20.3537C64.6179 21.2387 63.1429 21.8287 61.3238 21.8287C56.4563 21.8287 54.4404 19.0754 54.4404 16.027V2.85036H59.8979V15.9287C59.8979 16.4695 60.1929 17.1579 61.4221 17.1579C62.6513 17.1579 62.9954 16.5187 62.9954 15.9287V2.85036H68.4529V15.9287C68.4529 16.4695 68.7479 17.1579 69.9771 17.1579C71.2063 17.1579 71.5504 16.5187 71.5504 15.9287V2.85036ZM100.51 10.2254V2.85036H95.1013V10.717C95.1013 13.3229 96.8713 15.2895 99.8704 16.1254V21.5337H105.426V16.1254C108.475 15.2895 110.146 13.3229 110.146 10.717V7.81619C110.146 7.52119 110.294 7.37369 110.589 7.37369H112.998V9.73369L118.701 5.06286L112.998 0.392029V2.75203H109.212C106.016 2.75203 104.689 4.62036 104.689 7.27536V10.2254C104.689 10.9137 104.197 11.7495 102.575 11.7495C101.001 11.7495 100.51 10.9137 100.51 10.2254ZM93.7246 8.20953V21.5829H88.2671V16.1254H84.1371V21.5337H78.6796V8.20953C78.6796 4.86619 81.4329 2.30953 86.2021 2.30953C90.9221 2.30953 93.7246 4.81703 93.7246 8.20953ZM88.2671 11.8479V8.50453C88.2671 7.61953 87.6279 6.98036 86.2021 6.98036C84.7271 6.98036 84.1371 7.61953 84.1371 8.50453V11.8479H88.2671Z" fill="#9E9E9E"></path></svg>