<svg xmlns="http://www.w3.org/2000/svg" width="131" height="38" viewBox="0 0 131 38" fill="none"><path fill-rule="evenodd" clip-rule="evenodd" d="M17.5247 35.9664C26.8161 35.9664 34.3482 28.4342 34.3482 19.1429C34.3482 9.8515 26.8161 2.31934 17.5247 2.31934C8.2333 2.31934 0.701172 9.8515 0.701172 19.1429C0.701172 28.4342 8.2333 35.9664 17.5247 35.9664ZM22.7731 10.1564C23.0285 9.249 22.1479 8.71239 21.3436 9.28538L10.1166 17.2835C9.24434 17.9049 9.38154 19.1429 10.3226 19.1429H13.279V19.12H19.0409L14.3461 20.7765L12.2764 28.1293C12.0209 29.0368 12.9014 29.5734 13.7058 29.0004L24.9329 21.0023C25.8051 20.3809 25.6678 19.1429 24.7268 19.1429H20.2435L22.7731 10.1564Z" fill="#9E9E9E"></path><path d="M43.0508 26.7205V24.0593H45.1614V13.3228H43.0508V10.6616H51.3096C52.2884 10.6616 53.1373 10.8299 53.8561 11.1663C54.5902 11.4875 55.1561 11.954 55.5537 12.5657C55.9667 13.1622 56.1731 13.881 56.1731 14.7222V14.9516C56.1731 15.6857 56.0355 16.2899 55.7602 16.764C55.4849 17.2228 55.1561 17.5822 54.7737 17.8422C54.4067 18.0869 54.0549 18.2628 53.7184 18.3699V18.7828C54.0549 18.8746 54.422 19.0505 54.8196 19.3105C55.2173 19.5552 55.5537 19.9146 55.829 20.3887C56.1196 20.8628 56.2649 21.4822 56.2649 22.2469V22.4763C56.2649 23.3634 56.0584 24.1281 55.6455 24.7705C55.2325 25.3975 54.659 25.8793 53.9249 26.2158C53.2061 26.5522 52.3649 26.7205 51.4014 26.7205H43.0508ZM48.1896 23.9675H51.0343C51.692 23.9675 52.2196 23.8069 52.6173 23.4858C53.0302 23.1646 53.2367 22.7058 53.2367 22.1093V21.8799C53.2367 21.2834 53.0378 20.8246 52.6402 20.5034C52.2425 20.1822 51.7073 20.0216 51.0343 20.0216H48.1896V23.9675ZM48.1896 17.2687H50.9884C51.6155 17.2687 52.1278 17.1081 52.5255 16.7869C52.9384 16.4657 53.1449 16.0222 53.1449 15.4563V15.2269C53.1449 14.6457 52.9461 14.2022 52.5484 13.8963C52.1508 13.5752 51.6308 13.4146 50.9884 13.4146H48.1896V17.2687Z" fill="#9E9E9E"></path><path d="M63.1028 27.0416C61.971 27.0416 60.954 26.8122 60.0516 26.3534C59.1493 25.8946 58.4381 25.2293 57.9181 24.3575C57.3981 23.4858 57.1381 22.4381 57.1381 21.2146V20.8475C57.1381 19.624 57.3981 18.5763 57.9181 17.7046C58.4381 16.8328 59.1493 16.1675 60.0516 15.7087C60.954 15.2499 61.971 15.0205 63.1028 15.0205C64.2346 15.0205 65.2516 15.2499 66.154 15.7087C67.0563 16.1675 67.7675 16.8328 68.2875 17.7046C68.8075 18.5763 69.0675 19.624 69.0675 20.8475V21.2146C69.0675 22.4381 68.8075 23.4858 68.2875 24.3575C67.7675 25.2293 67.0563 25.8946 66.154 26.3534C65.2516 26.8122 64.2346 27.0416 63.1028 27.0416ZM63.1028 24.4722C63.9899 24.4722 64.724 24.1893 65.3052 23.6234C65.8863 23.0422 66.1769 22.2163 66.1769 21.1458V20.9163C66.1769 19.8458 65.8863 19.0275 65.3052 18.4616C64.7393 17.8805 64.0052 17.5899 63.1028 17.5899C62.2157 17.5899 61.4816 17.8805 60.9005 18.4616C60.3193 19.0275 60.0287 19.8458 60.0287 20.9163V21.1458C60.0287 22.2163 60.3193 23.0422 60.9005 23.6234C61.4816 24.1893 62.2157 24.4722 63.1028 24.4722Z" fill="#9E9E9E"></path><path d="M70.5886 26.7205V10.6616H73.4792V26.7205H70.5886Z" fill="#9E9E9E"></path><path d="M79.8941 26.7205C79.1447 26.7205 78.533 26.491 78.0588 26.0322C77.6 25.5581 77.3706 24.931 77.3706 24.151V17.7275H74.5259V15.3416H77.3706V11.8087H80.2612V15.3416H83.3812V17.7275H80.2612V23.6463C80.2612 24.1052 80.4753 24.3346 80.9035 24.3346H83.1059V26.7205H79.8941Z" fill="#9E9E9E"></path><path d="M89.5766 27.0416C88.093 27.0416 86.8771 26.7205 85.9289 26.0781C84.9807 25.4358 84.4071 24.5181 84.2083 23.3252L86.8695 22.6369C86.9766 23.1722 87.1524 23.5928 87.3972 23.8987C87.6572 24.2046 87.9707 24.4263 88.3377 24.564C88.7201 24.6863 89.133 24.7475 89.5766 24.7475C90.2495 24.7475 90.7466 24.6328 91.0677 24.4034C91.3889 24.1587 91.5495 23.8605 91.5495 23.5087C91.5495 23.1569 91.3966 22.8893 91.0907 22.7058C90.7848 22.5069 90.2954 22.3463 89.6224 22.224L88.9801 22.1093C88.1848 21.9563 87.4583 21.7499 86.8007 21.4899C86.143 21.2146 85.6154 20.8399 85.2177 20.3658C84.8201 19.8916 84.6213 19.2799 84.6213 18.5305C84.6213 17.3987 85.0342 16.5346 85.8601 15.9381C86.686 15.3263 87.7719 15.0205 89.1177 15.0205C90.3872 15.0205 91.4424 15.3034 92.2836 15.8693C93.1248 16.4352 93.6754 17.1769 93.9354 18.0946L91.2513 18.9205C91.1289 18.3393 90.8766 17.9263 90.4942 17.6816C90.1272 17.4369 89.6683 17.3146 89.1177 17.3146C88.5672 17.3146 88.1466 17.414 87.856 17.6128C87.5654 17.7963 87.4201 18.0563 87.4201 18.3928C87.4201 18.7599 87.573 19.0352 87.8789 19.2187C88.1848 19.3869 88.5977 19.5169 89.1177 19.6087L89.7601 19.7234C90.6166 19.8763 91.3889 20.0828 92.0772 20.3428C92.7807 20.5875 93.3313 20.9469 93.7289 21.421C94.1419 21.8799 94.3483 22.5069 94.3483 23.3022C94.3483 24.4952 93.9124 25.4205 93.0407 26.0781C92.1842 26.7205 91.0295 27.0416 89.5766 27.0416Z" fill="#9E9E9E"></path><path d="M95.7343 26.7205V10.6616H98.6249V16.741H99.0378C99.1602 16.4963 99.3514 16.2516 99.6114 16.0069C99.8714 15.7622 100.215 15.5634 100.644 15.4105C101.087 15.2422 101.645 15.1581 102.318 15.1581C103.205 15.1581 103.978 15.3646 104.635 15.7775C105.308 16.1752 105.828 16.7334 106.195 17.4522C106.563 18.1557 106.746 18.9816 106.746 19.9299V26.7205H103.855V20.1593C103.855 19.3028 103.641 18.6605 103.213 18.2322C102.8 17.804 102.204 17.5899 101.424 17.5899C100.537 17.5899 99.8484 17.8881 99.359 18.4846C98.8696 19.0658 98.6249 19.884 98.6249 20.9393V26.7205H95.7343Z" fill="#9E9E9E"></path><path d="M108.724 26.7205V15.3416H111.614V26.7205H108.724ZM110.169 14.011C109.649 14.011 109.206 13.8428 108.839 13.5063C108.487 13.1699 108.311 12.7263 108.311 12.1757C108.311 11.6252 108.487 11.1816 108.839 10.8452C109.206 10.5087 109.649 10.3405 110.169 10.3405C110.704 10.3405 111.148 10.5087 111.5 10.8452C111.851 11.1816 112.027 11.6252 112.027 12.1757C112.027 12.7263 111.851 13.1699 111.5 13.5063C111.148 13.8428 110.704 14.011 110.169 14.011Z" fill="#9E9E9E"></path><path d="M115.552 26.7205V17.7275H112.661V15.3416H115.552V13.231C115.552 12.451 115.781 11.8316 116.24 11.3728C116.714 10.8987 117.326 10.6616 118.075 10.6616H121.058V13.0475H119.085C118.656 13.0475 118.442 13.2769 118.442 13.7357V15.3416H121.425V17.7275H118.442V26.7205H115.552Z" fill="#9E9E9E"></path><path d="M126.65 26.7205C125.901 26.7205 125.289 26.491 124.815 26.0322C124.356 25.5581 124.127 24.931 124.127 24.151V17.7275H121.282V15.3416H124.127V11.8087H127.017V15.3416H130.137V17.7275H127.017V23.6463C127.017 24.1052 127.231 24.3346 127.66 24.3346H129.862V26.7205H126.65Z" fill="#9E9E9E"></path></svg>